<svg xmlns="http://www.w3.org/2000/svg" viewBox="0 0 1600 1000">
  <rect width="1600" height="1000" fill="#14161c"/>
  <rect x="120" y="90" width="1360" height="820" rx="24" fill="#1c1f27"/>
  <path d="M120 114a24 24 0 0 1 24-24h1312a24 24 0 0 1 24 24v46H120z" fill="#282c36"/>
  <circle cx="170" cy="125" r="9" fill="#ff5f57"/><circle cx="200" cy="125" r="9" fill="#febc2e"/><circle cx="230" cy="125" r="9" fill="#28c840"/>
  <rect x="200" y="240" width="140" height="10" rx="5" fill="#22c55e"/>
  <text x="200" y="400" font-family="Inter, Helvetica, Arial, sans-serif" font-size="92" font-weight="500" fill="#ffffff" letter-spacing="-3">DevSecOps Pipeline</text>
  <text x="200" y="470" font-family="Inter, Helvetica, Arial, sans-serif" font-size="32" fill="#9a9ca3">CI/CD · security scanning · compliance reports</text>
  <line x1="260" y1="700" x2="1340" y2="700" stroke="#3a3f4b" stroke-width="6"/>
  <circle cx="260" cy="700" r="40" fill="#22c55e"/><circle cx="530" cy="700" r="40" fill="#22c55e"/><circle cx="800" cy="700" r="40" fill="#22c55e"/><circle cx="1070" cy="700" r="40" fill="#3a3f4b" stroke="#22c55e" stroke-width="6"/><circle cx="1340" cy="700" r="40" fill="#3a3f4b"/>
  <text x="260" y="790" text-anchor="middle" font-family="Inter, Helvetica, Arial, sans-serif" font-size="24" fill="#9a9ca3">build</text>
  <text x="530" y="790" text-anchor="middle" font-family="Inter, Helvetica, Arial, sans-serif" font-size="24" fill="#9a9ca3">test</text>
  <text x="800" y="790" text-anchor="middle" font-family="Inter, Helvetica, Arial, sans-serif" font-size="24" fill="#9a9ca3">scan</text>
  <text x="1070" y="790" text-anchor="middle" font-family="Inter, Helvetica, Arial, sans-serif" font-size="24" fill="#9a9ca3">review</text>
  <text x="1340" y="790" text-anchor="middle" font-family="Inter, Helvetica, Arial, sans-serif" font-size="24" fill="#9a9ca3">deploy</text>
</svg>
